<svg width="168" height="51" viewBox="0 0 168 51" fill="none" xmlns="http://www.w3.org/2000/svg">
<path d="M65.892 18.184H63.5V29H59.054V18.184H57.442V14.492H59.054V14.076C59.054 12.2907 59.5653 10.9387 60.588 10.02C61.6107 9.084 63.11 8.616 65.086 8.616C65.4153 8.616 65.658 8.62467 65.814 8.642V12.412C64.9647 12.36 64.3667 12.4813 64.02 12.776C63.6733 13.0707 63.5 13.5993 63.5 14.362V14.492H65.892V18.184ZM70.2171 12.984C69.4371 12.984 68.7958 12.7587 68.2931 12.308C67.8078 11.84 67.5651 11.268 67.5651 10.592C67.5651 9.89867 67.8078 9.32667 68.2931 8.876C68.7958 8.408 69.4371 8.174 70.2171 8.174C70.9798 8.174 71.6038 8.408 72.0891 8.876C72.5918 9.32667 72.8431 9.89867 72.8431 10.592C72.8431 11.268 72.5918 11.84 72.0891 12.308C71.6038 12.7587 70.9798 12.984 70.2171 12.984ZM72.4271 14.492V29H67.9811V14.492H72.4271ZM84.4891 14.336C86.1878 14.336 87.5398 14.8907 88.5451 16C89.5678 17.092 90.0791 18.6 90.0791 20.524V29H85.6591V21.122C85.6591 20.1513 85.4078 19.3973 84.9051 18.86C84.4024 18.3227 83.7264 18.054 82.8771 18.054C82.0278 18.054 81.3518 18.3227 80.8491 18.86C80.3464 19.3973 80.0951 20.1513 80.0951 21.122V29H75.6491V14.492H80.0951V16.416C80.5458 15.7747 81.1524 15.272 81.9151 14.908C82.6778 14.5267 83.5358 14.336 84.4891 14.336ZM92.2846 21.72C92.2846 20.2293 92.562 18.9207 93.1166 17.794C93.6886 16.6673 94.46 15.8007 95.4306 15.194C96.4013 14.5873 97.4846 14.284 98.6806 14.284C99.634 14.284 100.501 14.4833 101.281 14.882C102.078 15.2807 102.702 15.818 103.153 16.494V9.76H107.599V29H103.153V26.92C102.737 27.6133 102.139 28.168 101.359 28.584C100.596 29 99.7033 29.208 98.6806 29.208C97.4846 29.208 96.4013 28.9047 95.4306 28.298C94.46 27.674 93.6886 26.7987 93.1166 25.672C92.562 24.528 92.2846 23.2107 92.2846 21.72ZM103.153 21.746C103.153 20.6367 102.841 19.7613 102.217 19.12C101.61 18.4787 100.865 18.158 99.9806 18.158C99.0966 18.158 98.3426 18.4787 97.7186 19.12C97.112 19.744 96.8086 20.6107 96.8086 21.72C96.8086 22.8293 97.112 23.7133 97.7186 24.372C98.3426 25.0133 99.0966 25.334 99.9806 25.334C100.865 25.334 101.61 25.0133 102.217 24.372C102.841 23.7307 103.153 22.8553 103.153 21.746ZM109.931 21.746C109.931 20.238 110.234 18.9207 110.841 17.794C111.465 16.6673 112.323 15.8007 113.415 15.194C114.524 14.5873 115.79 14.284 117.211 14.284C119.031 14.284 120.548 14.7607 121.761 15.714C122.992 16.6673 123.798 18.0107 124.179 19.744H119.447C119.048 18.6347 118.277 18.08 117.133 18.08C116.318 18.08 115.668 18.4007 115.183 19.042C114.698 19.666 114.455 20.5673 114.455 21.746C114.455 22.9247 114.698 23.8347 115.183 24.476C115.668 25.1 116.318 25.412 117.133 25.412C118.277 25.412 119.048 24.8573 119.447 23.748H124.179C123.798 25.4467 122.992 26.7813 121.761 27.752C120.53 28.7227 119.014 29.208 117.211 29.208C115.79 29.208 114.524 28.9047 113.415 28.298C112.323 27.6913 111.465 26.8247 110.841 25.698C110.234 24.5713 109.931 23.254 109.931 21.746ZM135.475 14.336C137.139 14.336 138.474 14.8907 139.479 16C140.485 17.092 140.987 18.6 140.987 20.524V29H136.567V21.122C136.567 20.1513 136.316 19.3973 135.813 18.86C135.311 18.3227 134.635 18.054 133.785 18.054C132.936 18.054 132.26 18.3227 131.757 18.86C131.255 19.3973 131.003 20.1513 131.003 21.122V29H126.557V9.76H131.003V16.442C131.454 15.8007 132.069 15.2893 132.849 14.908C133.629 14.5267 134.505 14.336 135.475 14.336ZM146.313 12.984C145.533 12.984 144.892 12.7587 144.389 12.308C143.904 11.84 143.661 11.268 143.661 10.592C143.661 9.89867 143.904 9.32667 144.389 8.876C144.892 8.408 145.533 8.174 146.313 8.174C147.076 8.174 147.7 8.408 148.185 8.876C148.688 9.32667 148.939 9.89867 148.939 10.592C148.939 11.268 148.688 11.84 148.185 12.308C147.7 12.7587 147.076 12.984 146.313 12.984ZM148.523 14.492V29H144.077V14.492H148.523ZM150.861 21.72C150.861 20.2293 151.138 18.9207 151.693 17.794C152.265 16.6673 153.036 15.8007 154.007 15.194C154.977 14.5873 156.061 14.284 157.257 14.284C158.279 14.284 159.172 14.492 159.935 14.908C160.715 15.324 161.313 15.87 161.729 16.546V14.492H166.175V29H161.729V26.946C161.295 27.622 160.689 28.168 159.909 28.584C159.146 29 158.253 29.208 157.231 29.208C156.052 29.208 154.977 28.9047 154.007 28.298C153.036 27.674 152.265 26.7987 151.693 25.672C151.138 24.528 150.861 23.2107 150.861 21.72ZM161.729 21.746C161.729 20.6367 161.417 19.7613 160.793 19.12C160.186 18.4787 159.441 18.158 158.557 18.158C157.673 18.158 156.919 18.4787 156.295 19.12C155.688 19.744 155.385 20.6107 155.385 21.72C155.385 22.8293 155.688 23.7133 156.295 24.372C156.919 25.0133 157.673 25.334 158.557 25.334C159.441 25.334 160.186 25.0133 160.793 24.372C161.417 23.7307 161.729 22.8553 161.729 21.746Z" fill="black"/>
<path d="M37.4878 29.5366L40.0732 27.3902M43.3049 27.3902C44.162 27.3902 44.984 27.1076 45.59 26.6044C46.1961 26.1013 46.5366 25.4189 46.5366 24.7073C46.5366 23.9958 46.1961 23.3134 45.59 22.8102C44.984 22.3071 44.162 22.0244 43.3049 22.0244C42.4478 22.0244 41.6258 22.3071 41.0197 22.8102C40.4137 23.3134 40.0732 23.9958 40.0732 24.7073C40.0732 25.4189 40.4137 26.1013 41.0197 26.6044C41.6258 27.1076 42.4478 27.3902 43.3049 27.3902V27.3902ZM34.9024 12.3659L37.4878 10.2195L34.9024 12.3659ZM31.6707 17.7317C32.5278 17.7317 33.3498 17.449 33.9559 16.9459C34.562 16.4428 34.9024 15.7603 34.9024 15.0488C34.9024 14.3372 34.562 13.6548 33.9559 13.1517C33.3498 12.6485 32.5278 12.3659 31.6707 12.3659C30.8136 12.3659 29.9916 12.6485 29.3856 13.1517C28.7795 13.6548 28.439 14.3372 28.439 15.0488C28.439 15.7603 28.7795 16.4428 29.3856 16.9459C29.9916 17.449 30.8136 17.7317 31.6707 17.7317V17.7317ZM32.3171 24.1707L42.6585 15.5854L32.3171 24.1707ZM29.0854 29.5366C29.9425 29.5366 30.7645 29.2539 31.3705 28.7508C31.9766 28.2476 32.3171 27.5652 32.3171 26.8537C32.3171 26.1421 31.9766 25.4597 31.3705 24.9565C30.7645 24.4534 29.9425 24.1707 29.0854 24.1707C28.2283 24.1707 27.4063 24.4534 26.8002 24.9565C26.1942 25.4597 25.8537 26.1421 25.8537 26.8537C25.8537 27.5652 26.1942 28.2476 26.8002 28.7508C27.4063 29.2539 28.2283 29.5366 29.0854 29.5366V29.5366ZM45.8903 15.5854C46.7474 15.5854 47.5694 15.3027 48.1754 14.7996C48.7815 14.2964 49.122 13.614 49.122 12.9024C49.122 12.1909 48.7815 11.5085 48.1754 11.0053C47.5694 10.5022 46.7474 10.2195 45.8903 10.2195C45.0332 10.2195 44.2112 10.5022 43.6051 11.0053C42.999 11.5085 42.6585 12.1909 42.6585 12.9024C42.6585 13.614 42.999 14.2964 43.6051 14.7996C44.2112 15.3027 45.0332 15.5854 45.8903 15.5854Z" stroke="black" stroke-width="2" stroke-linecap="round" stroke-linejoin="round"/>
</svg>
